<svg xmlns="http://www.w3.org/2000/svg" width="128" height="128"><path fill="#223839" d="m20.072-.274 2.43-.03 2.638-.002 2.8-.026c3.056-.024 6.113-.032 9.17-.04l6.382-.026q6.693-.025 13.386-.028C62.585-.43 68.292-.469 74-.514c4.396-.03 8.791-.037 13.187-.038q3.156-.006 6.31-.038a661 661 0 0 1 8.846-.01l2.614-.044c7.176.086 11.82 2.707 17.066 7.488l1.352 1.656 1.398 1.656c3.46 5.2 3.529 9.959 3.533 16.005l.026 2.771c.024 3.02.032 6.038.04 9.056l.026 6.311q.024 6.614.028 13.227c.005 5.64.043 11.278.088 16.917.03 4.345.037 8.69.038 13.035q.006 3.118.038 6.235c.027 2.913.022 5.824.01 8.737l.044 2.581c-.086 7.131-2.719 11.819-7.523 16.992l-1.684 1.352-1.69 1.398c-3.241 2.277-5.831 3.474-9.819 3.501l-2.43.03-2.638.002-2.8.026c-3.056.024-6.113.032-9.17.04l-6.382.026q-6.693.025-13.386.028c-5.707.005-11.414.043-17.122.088-4.396.03-8.791.037-13.187.038q-3.156.006-6.31.038a661 661 0 0 1-8.846.01l-2.614.044c-7.176-.086-11.82-2.707-17.066-7.488L4.625 119.5l-1.398-1.656c-3.444-5.177-3.524-9.894-3.518-15.914l-.02-2.741c-.019-2.986-.023-5.972-.025-8.959l-.02-6.243Q-.373 77.444-.371 70.9c0-5.578-.027-11.156-.061-16.735-.022-4.299-.026-8.598-.025-12.897a965 965 0 0 0-.027-6.168c-.02-2.881-.014-5.762-.002-8.643l-.034-2.553C-.448 17.103 1.443 11.866 6 6.758l2-1.633 2-1.68c3.324-2.402 5.938-3.691 10.072-3.72"/><path fill="#B4AFB4" d="m20.072-.274 2.43-.03 2.638-.002 2.8-.026c3.056-.024 6.113-.032 9.17-.04l6.382-.026q6.693-.025 13.386-.028C62.585-.43 68.292-.469 74-.514c4.396-.03 8.791-.037 13.187-.038q3.156-.006 6.31-.038a661 661 0 0 1 8.846-.01l2.614-.044c7.176.086 11.82 2.707 17.066 7.488l1.352 1.656 1.398 1.656c2.78 4.178 3.473 7.829 3.422 12.801l-.02 3.37-.05 3.485-.027 3.545Q128.062 37.68 128 42l-8 1-1-3h-3l-1-2c-3.03-.658-3.03-.658-6-1l-1 3h-3l-1-4h-2v-2h-2l-1-2-10 2-1-3h-7l-2 5h-2v2h2l-1 4h-2v2h2v2h-2l-1 2-3-2 1 3c-1.896.054-3.791.093-5.688.125l-3.199.07C60.956 48.997 58.887 48.21 56 47c-3.228.3-3.228.3-6 1l-1 3h-2l-.125 1.875L46 55c-2.563 1-2.563 1-6 2q-1.983 1.036-3.938 2.125C32.144 61.164 29.37 61.365 25 61l2 5a316 316 0 0 1-5.313-.313l-2.988-.175C16 65 16 65 14.492 63.472c-1.46-1.739-1.46-1.739-4.12-1.8l-2.935.078-2.94.047C2.001 61.844 2.001 61.844 0 63c-.102-6.404-.172-12.809-.22-19.214q-.03-3.264-.082-6.53a946 946 0 0 1-.089-9.412l-.062-2.924C-.456 17.615 1.088 12.264 6 6.758l2-1.633 2-1.68c3.324-2.402 5.938-3.691 10.072-3.72"/><path fill="#183634" d="M93 82h7l.875 2.75c.89 2.572 1.84 4.863 3.125 7.25l4-2 6 4 2-3 2.313.563c2.777.665 2.777.665 5.687-.563 3 1 3 1 4 3 1.317 18.545 1.317 18.545-3.437 24.46L123 120l-1.75 1.727c-4.037 3.671-7.69 6.51-13.322 6.547l-2.43.03-2.638.002-2.8.026c-3.056.024-6.113.032-9.17.04l-6.382.026q-6.693.024-13.386.028c-5.707.005-11.414.043-17.122.088-4.396.03-8.791.037-13.187.038q-3.156.006-6.31.038a661 661 0 0 1-8.846.01l-2.614.044c-7.176-.086-11.82-2.707-17.066-7.488L4.625 119.5l-1.398-1.656c-2.776-4.172-3.472-7.686-3.352-12.656l.055-2.958L0 100c3.793 2.588 4.94 4.47 6 9l-1 2c2.313-2.313 2.496-3.479 3.125-6.625l.508-2.477L9 100l1 4c2.489-.43 3.749-.749 5.563-2.562L17 100h5l1 2q2.188-.212 4.375-.437l2.46-.247c2.208-.207 2.208-.207 4.165-1.316v2h2v-2h4l.313 1.938L41 104c2.892 1.333 2.892 1.333 5.188.063L48 103v2h3v-2c3.024.588 6.018 1.227 9 2l2-5h2l-.062-3.937A59 59 0 0 1 64 92c1.812-1.812 4.27-1.132 6.678-1.137l2.26.012 2.248-.012c5.56.01 5.56.01 7.814 1.137l-.125-2.875C83 86 83 86 85 84c3.625.375 3.625.375 7 1z"/><path fill="#DFBEAC" d="m65.375 9.75 3.336-.016c4.423.358 8.065.96 11.164 4.266C81 16 81 16 81 18h2v2c3.162 1.054 5.87 1.313 9.188 1.563l3.292.253L98 22v2l3.465.402 4.472.535 2.288.264c5.662.686 5.662.686 6.775 1.799 4.325.465 8.66.705 13 1v14l-8 1-1-3h-3l-1-2c-3.03-.658-3.03-.658-6-1l-1 3h-3l-1-4h-2v-2h-2l-1-2-10 2-1-3h-7l-2 5h-2v2h2l-1 4h-2v2h2v2h-2l-1 2-3-2 1 3c-1.896.054-3.791.093-5.687.125l-3.2.07C60.956 48.997 58.887 48.21 56 47c-3.228.3-3.228.3-6 1l-1 3h-2l-.125 1.875L46 55c-2.562 1-2.562 1-6 2q-1.983 1.036-3.937 2.125C32.143 61.164 29.37 61.365 25 61l2 5a316 316 0 0 1-5.312-.312l-2.989-.176C16 65 16 65 14.492 63.472c-1.46-1.739-1.46-1.739-4.12-1.8l-2.934.078-2.942.047C2.002 61.844 2.002 61.844 0 63V44c6.413-.879 10.922-1.246 17 1v3l3-1a80 80 0 0 1 4.668-.098l2.705.01 2.814.026 2.85.013Q36.518 46.97 40 47l-1-4h2l-1-4h-2l-1-3h-8l-1-2c-3.416-.25-3.416-.25-7 0l-2 3-7-4 1-9 4 2v1c10.527 2.857 10.527 2.857 21 2v-6h-3l-1-5h-2v-4h8l1-2 2.922.07 3.828.055 3.797.07c5.002-.283 8.595-2.47 13.828-2.445"/><path fill="#444C41" d="M81 30h7l1 4 1.645-.691 2.168-.871 2.144-.88C97 31 97 31 100 32v2h2v2h2v4l10 1 3 10h-9v2l1.875.375C112 54 112 54 114 56h-2l1 4-3.375.813c-3.843.845-3.843.845-5.625 4.187-3.04.293-3.04.293-6.625.188l-3.602-.083L91 65v2l-2.152.148-2.785.227c-.917.07-1.834.14-2.778.21L81 68l-1 2 2.063-.219c8.667-.83 17.242-.88 25.937-.781 1.125 3.75 1.125 3.75 0 6h-7v3c-4.014 2.007-9.077 1.444-13.5 1.625l-3.246.156-3.098.133-2.85.124C76 80 76 80 74 79v2c-6.928 3.464-17.399 2.135-25 2l1 4h4v2c-7.728.137-15.309-.248-23-1v-1l12-2v-5h-5l-1 4-1-2 1-2-3-1 2-1 2-3v3h5v-5h-8v-1h9l-1-3-12-1-1 3v-3h-4l-1-7 1.723-.297c4.07-.788 7.484-1.623 11.027-3.828C40.965 55.02 42.391 54.563 46 55l.125-1.687c1.369-3.618 3.75-5.15 6.875-7.313 3.828-.623 4.7-.2 8 2 2.745.242 2.745.242 5.688.125l3.011-.055L72 48v-2h6v-2h-2v-2h2l1-4h-2v-2l2-1a78 78 0 0 0 2-5"/><path fill="#415361" d="M109 37h6l1 3h3l1 2h8v52l-1-2h-2.25C118 92 118 92 116 91l-2 5-6-5-5 2c-1.422-3.317-2.39-6.442-3-10h-7l-1 2-3.375-.187L85 85l-2 3c-7.2.469-14.388-.36-21.562-1A3235.42 3235.42 0 0 1 50 86l-1.001-3 25-2v-2l27-1v-3h7v-6l-3.078.219C96.6 69.787 88.346 70.142 80 70l1-3h10v-2c2.645-1.322 4.678-1.097 7.625-1.062l3.04.027L104 64l1-3 7-1v-5l-4-2v-2h9l-1.5-3.312C114 44 114 44 114 41h-11l2-3v2l3-1z"/><path fill="#213F3B" d="M0 100c3.793 2.588 4.94 4.47 6 9l-1 2c2.313-2.313 2.496-3.479 3.125-6.625l.508-2.477L9 100l1 4c2.489-.43 3.749-.749 5.563-2.562L17 100h5l1 2q2.188-.212 4.375-.437l2.46-.247c2.208-.207 2.208-.207 4.165-1.316v2h2v-2h4l.313 1.938L41 104c2.892 1.333 2.892 1.333 5.188.063L48 103v2h3v-2l3 1-1 5-3-1 1 4h4l2.688.563L60 113l1-1 4 2-1.062 1.875L63 118l1 2-10 1-2-3-3-1-2-2h-2l-1 7h2v-2h5v6h-4v2q-6.402.186-12.805.275-2.174.037-4.347.102c-15.524.455-15.524.455-21.848-5.377l-2.023-1.844-1.352-1.656-1.398-1.656c-2.776-4.172-3.472-7.686-3.352-12.656l.055-2.958z"/><path fill="#14303C" d="M7 9c11.522-.369 11.522-.369 17 2l1 5 2.75-.25C31 16 31 16 33.375 17.813 35 20 35 20 35 23h3c.188 2.875.188 2.875 0 6-3.488 2.325-4.901 2.335-9 2l-4-2a96 96 0 0 0-4.062-.437C17 28 17 28 15 26.438L14 25l-.437 1.75L12 33l1.813.375C16 34 16 34 19 36l2-3c3.625-.187 3.625-.187 7 0l1 3 8-1 1 4h2l1 4h-2l1 4c-7.693.848-15.263 1.122-23 1v-3l-2.75.063C11 45 11 45 9.063 44.5 6.047 43.77 3.09 43.971 0 44a2228 2228 0 0 1-.125-13.312l-.05-3.827-.02-3.662-.032-3.38C0 17 0 17 2 14h4z"/><path fill="#0C222C" d="M93 82h7l.875 2.75c.89 2.572 1.84 4.863 3.125 7.25l4-2 6 4 2-3 2.313.563c2.777.665 2.777.665 5.687-.563 3 1 3 1 4 3 .072 2.718.093 5.409.063 8.125l-.014 2.285q-.02 2.795-.049 5.59l-1.672-1.488c-2.792-1.813-4.29-1.83-7.578-1.7l-2.703.083L114 107l-1 2-3-3h2l-1-5-1 1a69 69 0 0 1-4.473.098l-2.724-.01-2.865-.025-2.877-.014Q93.53 102.03 90 102v2h5v2l5 1-1 2-5-2-1 2c-1.875-.125-1.875-.125-4-1-1.25-3.062-1.25-3.062-2-6l-5 1-1 4h-2l-1-3-2.312.188C73 104 73 104 71.188 102.5L70 101l1 5-2 1-.312-1.937L68 103l-3-1q-.29-2.468-.562-4.937l-.317-2.778L64 92c1.812-1.812 4.27-1.132 6.678-1.137l2.26.012 2.248-.012c5.56.01 5.56.01 7.814 1.137l-.125-2.875C83 86 83 86 85 84c3.625.375 3.625.375 7 1z"/><path fill="#0A222B" d="M55.688 45.563c3.447.652 5.028 2.027 7 4.874C64 53 64 53 64 56h2v2l6-1v2l3-1 1 6h-2v3l1.938.313L78 68l1 3 3 2v2c-7.75.125-7.75.125-10-1a141 141 0 0 0-4.25-.312c-3.58-.337-4.693-.648-7.75-2.813-3.778-2.361-5.708-1.935-9.95-1.137C48 70 48 70 45 69v3l4 1h-4l1 5 3 1 1 8h4v2c-7.728.137-15.309-.248-23-1v-1l12-2v-5h-5l-1 4-1-2 1-2-3-1 2-1 2-3v3h5v-5h-8v-1h9l-1-3-12-1-1 3v-3h-4l-1-7 1.723-.297c4.07-.788 7.484-1.623 11.027-3.828C40.965 55.02 42.391 54.563 46 55l.125-1.687c1.617-4.275 5.08-7.02 9.563-7.75"/><path fill="#AAACB5" d="m25.367-.42 2.8-.026c3.047-.023 6.092-.024 9.138-.023l6.373-.023Q50.353-.51 57.028-.5c5.693.006 11.384-.025 17.075-.065 4.388-.026 8.775-.029 13.162-.025q3.147-.003 6.294-.03c2.939-.022 5.876-.012 8.816.006l2.604-.04C111.069-.571 115.325 1.029 120 5l2 3c-6.805 4.537-15.268 3.03-22.918 1.547C94.089 8.66 89.055 8.34 84 8V6l-1.966.035C72.412 6.127 62.851 5.567 53.25 5l-5.04-.29Q42.106 4.362 36 4v2h-2v2h-6c-.074 3.343-.065 5.804 1 9l-4-1-1-5L7 9l-1 5-4 1c.6-3.481 1.878-5.417 4.187-8.062l1.731-2.036C13.31-.025 18.418-.444 25.367-.42"/><path fill="#D7BAA5" d="m34.188 89.875 3.33-.014 3.15.006 2.821.004c2.316.119 4.293.475 6.511 1.129v2h2v-2h12v9h-2l-1 5c-1.875.625-1.875.625-4 1l-2-2c-2.069-.643-2.069-.643-4-1v2l-1.75-.625c-2.77-.462-3.896.196-6.25 1.625l-3-2v-4h-4v2h-4q-2.378.22-4.75.5l-2.422.281L23 103l-1-3c-2.33.959-2.33.959-4 4l-1-3-1.75 2.063L13 105c-2.25-.25-2.25-.25-4-1l-2 7H5l-1-8-3-1-1-5 2 1 1-1c2.69.176 5.329.618 8 1l2-5-7-1v-1c9.4-.856 18.75-1.109 28.188-1.125"/><path fill="#2B3F50" d="M100 32v2h2v2h2v4l10 1 3 10h-9v2h3v5c-5.629 2.932-8.772 3.202-15 2v3l-4-2v-2h-5v-3h-2v-3l-3 1c-2.187-.437-2.187-.437-4-1v-3l5-1c1.083-3.248.938-3.796-.062-6.875-1.027-3.683-.865-5.7 1.062-9.125l-2-1 5 1v2l6 1-2-1v-2c5.625-2.125 5.625-2.125 9-1"/><path fill="#2C4944" d="M111 100h1c.043 2 .04 4 0 6l-1 1c2.941.069 2.941.069 5.594-.36l2.906-.39 2.906-.422c2.594.172 2.594.172 4.477 1.965C128 110 128 110 127.375 113.063c-2.126 4.54-2.126 4.54-4.375 5.937-3.687.188-3.687.188-7 0v3l-6-1v-4h-2v-5h-2l1 3-2 3-7-1v-3l-1 2h-2v-2h-2v4l-4 2-1-3-3-1-2 5h-3v-2h2l1-4-4 1 1-3 5 1 1-8h-4l1-5 5 1 1 6 3.375-.5C96 107 96 107 98 107l-3-1v-2h-5v-2c3.992-1.341 8.035-1.074 12.188-1 2.61.046 5.2.047 7.812 0z"/><path fill="#E3C0AC" d="m10.813 45.375 2.957.336L16 46v3l4 2v2l1.863-.254 2.45-.309 2.425-.316C29 52 29 52 32 53v-2c3.158-2.105 3.954-2.253 7.563-2.187l2.378.019C44 49 44 49 46 50c-.062 1.75-.062 1.75-1 4a71 71 0 0 1-7 4l-3 1.75c-3.52 1.466-6.223 1.477-10 1.25l2 5a316 316 0 0 1-5.312-.312l-2.989-.176C16 65 16 65 14.492 63.472c-1.46-1.739-1.46-1.739-4.12-1.8l-2.934.078c-.971.015-1.942.03-2.942.047C2.002 61.844 2.002 61.844 0 63V47c4.728-1.891 6.078-2.195 10.813-1.625"/><path fill="#CAB7B0" d="M81 18h2v2c3.162 1.054 5.87 1.313 9.188 1.563l3.292.253L98 22v2l3.465.402 4.472.535 2.288.264c5.662.686 5.662.686 6.775 1.799 4.325.465 8.66.705 13 1v14l-8 1-1-3h-3l-1-2c-3.03-.658-3.03-.658-6-1l-1 3h-3l-1-4h-2v-2h-2l-1-2-10 2-1-3c-3.416-.25-3.416-.25-7 0l-2 3v-6h3z"/><path fill="#475A69" d="M81 30h7l.125 1.875L89 34c2.996 1.305 2.996 1.305 6 2-2.606.93-3.642 1.15-6.25.063L87 35v-2h-3c-1.12 5.49-.792 8.834 1 14h-2v2l-5 1v3h7v3h2v3l2.25-.25c3.532.321 4.516 1.603 6.75 4.25v-3l3.75.125c3.333.012 5.35-.406 8.25-2.125h3l1-4 2 2h-2l1 4-3.375.813c-3.843.845-3.843.845-5.625 4.187-3.04.293-3.04.293-6.625.188l-3.602-.083L91 65v2l-2.152.148-2.785.227c-.917.07-1.834.14-2.778.21L81 68l-1 2 2 1h-4l-1-3-3-1v-3h2l-2-5h-2v-2l-6 1v-2h-2c-3-4.385-3-4.385-3-7l2.152-.148 2.785-.227 2.778-.21c.754-.138 1.508-.274 2.285-.415l1-2h6v-2h-2v-2h2l1-4h-2v-2l2-1a78 78 0 0 0 2-5"/><path fill="#0E212D" d="m4.602 60.805 3.023.07 3.04.055L13 61l1 3 12 2v2h17l1 4-1 1a100 100 0 0 0 0 5l-2.52-.176-3.292-.136-3.27-.176c-3.14.18-3.14.18-4.805 3.008L28 83h2v2h-9v-3l2.438-1.875c2.773-1.898 2.773-1.898 3.375-4.875L27 73h-5v-2h-2l-1 3-3 1v3l-9 1v-5l-2.375 1.438C3.111 76.339 1.576 77.212 0 78a809 809 0 0 1-.125-7.375c-.017-.699-.034-1.397-.05-2.117C-.194 66.67-.104 64.834 0 63c2-2 2-2 4.602-2.195"/><path fill="#F8CBAC" d="M46 22h5l1 4h2v2h2v-2l8-1v-2l7 1v2h2v-2l6 2 1 9-3 1v2h-4l-1 5c-1.437.054-2.875.093-4.312.125l-2.426.07C63 43 63 43 60 41a98 98 0 0 0-6.187-1.125l-3.293-.508L48 39v-3h-2z"/><path fill="#D8B7A6" d="m74 79 3.194.092a27358 27358 0 0 0 16.897.48l7.35.21 2.277.066c4.43.123 8.85.172 13.282.152v2h-3v2l12 1v2h2v7l-1-2h-2.25C118 92 118 92 116 91l-2 5-6-5-5 2c-1.422-3.317-2.39-6.442-3-10h-7l-1 2-3.375-.187L85 85l-2 3c-7.2.469-14.388-.36-21.562-1l-3.346-.29Q54.045 86.36 50 86l-1-3 25-2z"/><path fill="#E8AC97" d="M78 12c4.1 5.287 4.536 9.438 4 16h-3v-2l-1.875-.437C75 25 75 25 73 24v2h-2v-2l-7-1v2l-8 1v2h-2v-2h-2l-1-3c-2.015-.733-2.015-.733-4-1 1.706-5.117 4.104-7.639 8.438-10.75C62.66 8.715 70.949 8.987 78 12"/><path fill="#D4B8AA" d="M73 37q3.012.43 6 1l-1 4h-2v2h2v2h-2l-1 2-3-2 1 3c-1.896.054-3.791.093-5.687.125l-3.2.07C60.956 48.997 58.887 48.21 56 47c-3.228.3-3.228.3-6 1l-1 3h-2l-1 4-4-1h3l1-4q-2.656-.04-5.312-.062l-2.989-.036C34.9 49.877 34.9 49.877 32 51v2c-1.915.108-3.833.186-5.75.25l-3.234.14C20 53 20 53 17.609 51.173 16 49 16 49 16 46q-2.594-.04-5.187-.062l-2.918-.036C5.145 45.995 2.675 46.38 0 47v-3c6.26-.932 11.022-1.21 17 1v3l3-1a80 80 0 0 1 4.668-.098l2.705.01 2.814.026 2.85.013Q36.518 46.97 40 47l-1-4h2l-1-4 16 2v2c3.55 1.163 6.558.924 10.25.563l3.266-.31L72 43l-.062-2.437C72 38 72 38 73 37"/><path fill="#BFB3B2" d="m80 15 7 2 1-1c3.868-.255 7.75-.185 11.625-.187l3.277-.038c5.765-.01 10.663.255 16.098 2.225v1l9 1v8q-3.22.039-6.437.063l-3.622.035C115 28 115 28 114 27c-2.71-.286-5.42-.448-8.14-.621-2.91-.386-5.194-1.178-7.86-2.379v-2l-2.52.07-3.293.055-3.269.07C86 22 86 22 83 20v-2h-2z"/><path fill="#0F242F" d="M52 49c3.952-.376 5.823-.095 9.375 1.813L64 53v3h2v2l6-1v2l3-1 1 6h-2v2l-10 3-3-3c-1.92-.498-1.92-.498-4.012-.512l-2.295-.107-2.38-.069-2.417-.103c-1.965-.082-3.93-.147-5.896-.209 0-2 0-2 2-4l1.375-2.625L49 56h4z"/><path fill="#D4BAA9" d="M52 91h12v9h-2l-1 5c-1.875.625-1.875.625-4 1l-2-2c-2.069-.643-2.069-.643-4-1v2l-1.75-.625c-2.77-.462-3.896.196-6.25 1.625l-3-2c-.187-2.625-.187-2.625 0-5h-4v-2l-2-1 1-2c5.645-1.201 11.249-1.104 17-1z"/><path fill="#294F62" d="m108 69 2.54.992c3.791 1.104 6.896 1.207 10.835 1.133L128 71v16h-2v-2l-12-1v-2h3v-2l-3.715.527c-5.978.665-11.854.35-17.847.035l-3.346-.158A1751 1751 0 0 1 84 80v-1l17-1v-3h7z"/><path fill="#183230" d="M20 100h2l1 2q2.188-.212 4.375-.437l2.46-.247c2.208-.207 2.208-.207 4.165-1.316v2h2v-2h4c1.176 3.674 1.074 7.17 1 11l4 1v2h-2l1 3-3 1 1 3c-3.44 2.294-4.723 3-9 3v3h-3l1-11 6-1c-.715-3.21-.715-3.21-3.625-4.625-3.51-1.43-6.616-2-10.375-2.375l-1 4-2-1z"/><path fill="#0F2C2B" d="m54 103 2 1-1 6h2v-2l2.313.938c1.875.74 3.774 1.424 5.687 2.062v2h4c1.23 6.4 1.23 6.4.063 9.438L68 124h-2l-1 4H47v-2h4l-2-4h2v-2h-5v2h-2l1-7 3-1 1 3 2 .5 2 .5 1 3c4.332-.86 4.332-.86 8-3q1.025-1.987 2-4l-3-2 1 3h-2v-2l-3.812-.062-2.145-.036c-2.246.015-2.246.015-5.043 1.098l1-6h2z"/><path fill="#122C36" d="M20 71h2v2h5c.375 2.188.375 2.188 0 5a112 112 0 0 1-6 5l-1 3h-9v2H0c-.489-9.292-.489-9.292 1.813-12.625C4 74 4 74 7 74v5l9-1-1-4 1.938-.375L19 73z"/><path fill="#494C54" d="m4.602 60.805 3.023.07 3.04.055L13 61l1 3 12 2c-3.712 3.712-4.584 4.522-9.25 5.75l-2.703.734L12 73v3h-2v2H8l-1-3c-2.962.613-4.38 1.254-7 3a809 809 0 0 1-.125-7.375c-.017-.699-.034-1.397-.05-2.117C-.194 66.67-.104 64.834 0 63c2-2 2-2 4.602-2.195"/><path fill="#F6C0A3" d="m47 22 5 1v3h2v2h2v-2l8-1v-2l7 1v2h2v-2l6 2v8h-8v-4c-5.693-1.186-9.426-.663-15 1v7c-4 0-4 0-6.187-1.812-2.69-3.247-2.934-5.805-2.876-9.876l.028-2.449z"/><path fill="#081924" d="M68.598 90.902q2.232.01 4.465.035l2.298.014q2.82.02 5.639.049l2 4h3c.25 2.313.25 2.313 0 5a72 72 0 0 1-4 3c-.796 2.094-.796 2.094-1 4h-2l-1-3-2.312.188C73 104 73 104 71.188 102.5L70 101l1 5-2 1-.312-1.937L68 103l-3-1q-.29-2.468-.562-4.937l-.317-2.778L64 92c1-1 1-1 4.598-1.098"/><path fill="#ECC9B3" d="M35 49q2.188-.04 4.375-.062l2.46-.036C44 49 44 49 46 50c-.062 1.75-.062 1.75-1 4a71 71 0 0 1-7 4l-3 1.75c-3.52 1.466-6.223 1.477-10 1.25l2 5a316 316 0 0 1-5.312-.312l-2.989-.176C15.673 64.938 15.01 64.198 13 62c-2-.04-4-.043-6 0l-2-2c5.103-1.905 9.463-3.426 15-3v2l3-1v-4l1.938.625c4.275.523 7.935-.537 12.062-1.625l-2-1z"/><path fill="#2C4844" d="m47 103 1 2h3v-2l3 1-1 5-3-1 1 4h4l2.688.563L60 113l1-1 4 2-1.062 1.875L63 118l1 2-10 1-2-3-3-1-2-2h-2l-1 7 4-1v2c-3.972 3.13-7.042 3.292-12 3 1.313-2.5 1.313-2.5 3-5h3l-2-4 3-1v-2h2v-2l-4-1v-6l1.875-.437c2.158-.495 2.158-.495 4.125-1.563"/><path fill="#102F3D" d="M1 14h11l-1 5 2 1H8l1 6-5 1 1 3H3v2l6-1 1 5h5l1 2h-6v2c-2.962-.613-4.38-1.254-7-3v2h2v3H0q-.042-6.156-.062-12.312l-.026-3.538-.01-3.388-.016-3.127C0 17 0 17 1 14"/><path fill="#B2A18B" d="m74 79 21 1c0 2 0 2-1.062 3.625C91.084 85.65 88.426 85 85 85l-2 3c-7.2.469-14.388-.36-21.562-1l-3.346-.29Q54.045 86.36 50 86l-1-3 25-2z"/><path fill="#203542" d="M21 33h7l1 3 8-1 1 4h2l1 4h-2l1 4c-6.565.784-12.468 1.11-19 0l3-1c-.344-2.473-.344-2.473-1-5l-2-1z"/><path fill="#6A7782" d="m123 60-4 3 1 4h-6l-1 4-1.58-.494c-3.094-.647-5.993-.618-9.154-.604l-3.926.01-4.09.025q-2.068.008-4.137.014Q85.057 69.97 80 70l1-3h10v-2c3.267-1.633 6.777-.96 10.371-.84 2.864.047 2.864.047 5.629-2.16 2.262-.195 2.262-.195 4.688-.125l2.449.055L116 62l1-2c3-1 3-1 6 0"/><path fill="#122E3D" d="m82 32 5 1v2l1.625.375c2.839.747 5.597 1.678 8.375 2.625v-2c3 1 3 1 4.625 3.875C103 43 103 43 104 46h-3l-1 3h-6v-3h-3l-1 2-2-3-3-1v-3l-3-1 2-7z"/><path fill="#344C5E" d="M81 30h7l.125 1.875L89 34c2.996 1.305 2.996 1.305 6 2-2.606.93-3.642 1.15-6.25.063L87 35v-2h-3c-1.12 5.49-.792 8.834 1 14h-2v2l-2.437.875c-2.696.858-2.696.858-3.563 3.125l-15-1-1-3 2.152-.148 2.785-.227 2.778-.21c.754-.138 1.508-.274 2.285-.415l1-2h6v-2h-2v-2h2l1-4h-2v-2l2-1a78 78 0 0 0 2-5"/><path fill="#173B51" d="M108 69c1.125 3.75 1.125 3.75 0 6h-7v2c-8.726.097-17.33.167-26-1v-1h7l-3-4c9.77-1.874 19.104-2.229 29-2"/><path fill="#0C1920" d="M26 67h28l-1 2c-3.284.95-4.697 1.101-8 0v3l4 1h-4l1 5 3 1 1 8h4v2c-7.728.137-15.309-.248-23-1v-1l12-2v-5h-5l-1 4-1-2 1-2-3-1 2-1 2-3v3h5v-5h-8v-1h9l-1-3-12-1-1 3v-3z"/><path fill="#20313C" d="M36 65c4.104-.058 8.208-.094 12.313-.125 1.167-.017 2.334-.034 3.537-.05l3.388-.02 3.127-.032C61 65 61 65 64 67v2l2.563-1.562C70.652 65.728 72.769 65.779 77 67c1.25 1.938 1.25 1.938 2 4l3 2v2c-7.75.125-7.75.125-10-1a153 153 0 0 0-4.062-.25c-3.724-.354-5.955-1.197-9.063-3.25-5.27-3.26-10.606-3.146-16.617-3.262C39 67 39 67 36 65"/><path fill="#D6A698" d="m65.375 9.75 3.336-.016c4.359.352 8.012.99 11.164 4.141C81 16 81 16 81 20h-2l1 5-4-1v-4h-2v-6h-2v3q-3.687.04-7.375.063l-2.117.025c-5.281.025-5.281.025-7.508-1.088a100 100 0 0 0-5 0c5.306-4.422 8.376-6.283 15.375-6.25"/><path fill="#1F353C" d="M13 9c1.439.087 2.876.196 4.313.313l2.425.175c2.673.605 3.65 1.317 5.262 3.512v3l2.75-.25C31 16 31 16 33.375 17.813 35 20 35 20 35 23h3c.188 2.875.188 2.875 0 6-3.488 2.325-4.901 2.335-9 2l-4-2a94 94 0 0 0-4.187-.5L17 28l-1-2h5l-2-4 2.188.438L24 23l2.688.563c2.247.499 2.247.499 4.312.437-1.226-2.08-1.226-2.08-3-4h-4v-2l-2-2h2v-2h-2l-1-2c-1.888-.685-1.888-.685-4.062-1.125l-2.223-.508L13 10z"/><path fill="#464D41" d="m62 85 1 2 2.09-.035C71.158 86.907 76.984 87.21 83 88v4q-5.899.037-11.798.055-2.993.012-5.985.033l-3.799.01-3.507.016C55 92 55 92 52 91v2h-2v-2l-29-1v-1h33v-2l-4-1q2.156-.04 4.313-.062l2.425-.036C59 86 59 86 62 87z"/><path fill="#384A58" d="m77 51 1 2h7v3h2v3h5l2 4-5-1v-2l-1.687 1c-2.616 1.131-4.494 1.157-7.313 1l-1-2a109 109 0 0 0-7-1v-2l-6 1v-2h-2l-1-4q2.938-.04 5.875-.062l3.305-.036C75 52 75 52 77 53z"/><path fill="#283845" d="M107 44c2 1.25 2 1.25 4 3v4h-3v2h3v5c-5.629 2.932-8.772 3.202-15 2v3l-4-2v-2h-5l2-3 9 1 .813-2.375C100 52 100 52 103 50h4z"/><path fill="#142B29" d="M111 100h1c.043 2 .04 4 0 6l-1 1 2 2-8 1v5h-3l-1-5h-8l1-3 5 1c-1.15-1.298-1.15-1.298-4-2v-2h-5v-2c3.992-1.341 8.035-1.074 12.188-1 2.61.046 5.2.047 7.812 0z"/><path fill="#3F504B" d="m64 98 1 4h3l-2 4h2l1 2h14l-1 3h-4l-1 5h-2v-2h-4a224 224 0 0 1-6-1v-2l-1.75-.375c-2.273-.631-4.175-1.514-6.25-2.625v2h-2l1-5h4l2-5h2z"/><path fill="#02161F" d="M119.504 96.902 128 97v13l-4-3c-2.589-.36-2.589-.36-5.25-.187l-2.703.082L114 107l-1 2-3-3h2v-6l1.938-.937c4.08-2.103 4.08-2.103 5.566-2.16"/><path fill="#10222A" d="m106 90 8 4 2-3 2.313.563c2.777.665 2.777.665 5.687-.563l3 1 1 5-2.3.113-3.013.2-2.988.175c-3.05.579-3.63 1.351-5.699 3.512h-4v-4l-5 2c-1.562-2.375-1.562-2.375-3-5 1-2 1-2 4-4"/><path fill="#D1BCB1" d="m107 31 6 1v2l12-1 3 9-8 1-1-3h-3l-1-2c-3.03-.658-3.03-.658-6-1l-1 3h-3c.875-6.75.875-6.75 2-9"/><path fill="#071B26" d="M92 86c6.51.614 6.51.614 8.625 2.281 1.53 1.914 2.267 3.595 3.063 5.906l.761 2.168L105 98l5-1v5c-8.571.286-8.571.286-12-2l3-1-1-4-4-1v5h-2l-1-6-5-1v-4h4z"/><path fill="#C5B6B5" d="m40 12 13 1-1 2h-2l-.5 2.313c-1.748 3.13-2.294 3.176-5.562 4.187-2.13.615-2.13.615-3.938 1.5-1.134 2.57-1.134 2.57-1 5h-1v-5h-3l-1-5h-2v-4h8z"/><path fill="#0A1E29" d="M52 49c5.538-.37 5.538-.37 7.875 1.5L61 52l-3 1v2l4 1v2h3c-.75 2.438-.75 2.438-2 5-3.703 1.677-6.948.513-10.75-.437l-3.547-.872L46 61c1.25-2.5 1.25-2.5 3-5h4z"/><path fill="#0D2E2E" d="m109 117 1 4 6 1v-3l7-1c-1.743 4.436-4.835 6.692-8.836 9.11-2.615 1.076-4.597 1.09-7.414 1.015l-2.703-.055L102 128v-2h-3v-2l-3 1v-2h-2l1-3 2 1v2l8 1 .313-2.375C106 119 106 119 109 117"/><path fill="#908784" d="m119 75 2 1-1 3 8 1v7h-2v-2l-12-1v-2h3v-2l-3.715.527c-5.978.665-11.854.35-17.847.035l-3.346-.158A1751 1751 0 0 1 84 80v-1l2.044-.06c3.111-.096 6.22-.206 9.331-.315l3.215-.094c10.854.208 10.854.208 20.41-3.531"/><path fill="#506676" d="M128 59v12l-14 1-1-2 1-3 5-1-1-4c3.873-2.656 5.02-3 10-3"/><path fill="#D0B8A8" d="M101 85h2v3c5.786.105 11.293-.007 17-1v-1l8 1v7l-1-2h-2.25C118 92 118 92 116 91l-2 5-6-5-5 2c-1.257-2.906-2-4.796-2-8"/><path fill="#364145" d="M60.25 70.5c3.805 2.076 7.476 2.23 11.75 2.5l-2 1v2h2l-1 3h-8l2-2h-5l-1 2-1-3-2-1-2-3-2.25.563c-2.7.429-4.196.288-6.75-.563v-3c10.58-1.614 10.58-1.614 15.25 1.5"/><path fill="#364C5D" d="m70 74 2.125.469c2.971.549 5.861.82 8.875 1.031l3.418.246L88 76q3.657.279 7.313.563L101 77c-2.56 2.56-3.614 2.285-7.172 2.379l-3.186.102-3.392.082q-3.413.106-6.824.218l-3.342.106C71.378 80.097 65.69 80.522 60 81v-4l6-1-1 2h6l1-2h-2z"/><path fill="#133333" d="M75 117c4.875 4.75 4.875 4.75 6 7h2v-3h4v4h2v3H69c2-6 2-6 4.125-7.375L75 120z"/><path fill="#BCAEA9" d="m13 24 4 2v1l1.906.367A273 273 0 0 1 35 31l-1.5 1.375C31.774 33.876 31.774 33.876 32 36h-3l-1-2c-3.416-.25-3.416-.25-7 0l-2 3-7-4z"/><path fill="#4E4D51" d="M2 61h11l1 3 12 2c-4.5 4.5-4.5 4.5-9.25 5.25-.892.15-1.784.3-2.703.453L12 72l-1-9-2 3c-6.125.438-6.125.438-9-1z"/><path fill="#EAC5AD" d="M46 22h1l.078 2.555.172 3.32.14 3.305c.298 2.953.298 2.953 2.657 4.203L52 36v2h18l-1-2c3.83-1.802 6.781-2.196 11-2l-1 2h-2v2h-4l-1 5c-1.437.054-2.875.093-4.312.125l-2.426.07C63 43 63 43 60 41a98 98 0 0 0-6.187-1.125l-3.293-.508L48 39v-3h-2z"/><path fill="#13323D" d="m17 11 5 1v2h2v2l2 2h-2v2l5-1 2 5-7 1v-2h-3v3l2 1c-5.538-.492-5.538-.492-7.875-3.062L14 22l1-2h2v-4h3c-.348-1.975-.348-1.975-1-4z"/><path fill="#031219" d="M81 93h2v2h3c.25 2.313.25 2.313 0 5a72 72 0 0 1-4 3c-.796 2.094-.796 2.094-1 4h-2l-1-3-2.312.188C73 104 73 104 71.188 102.5L70 101l1 5-2 1-1-6h-2v-3c10.558-.185 10.558-.185 15 1z"/><path fill="#D4BDB4" d="m46 20 1 2-2 1c-.469 2.816-.469 2.816-.625 6.063l-.227 3.347L44 35l-2.437.375L39 36l-1 2-1-2a101 101 0 0 0-6-2l4-2-1-3 1.875-.125L38 28l.875-2.937L40 22c3.125-1.375 3.125-1.375 6-2"/><path fill="#132B34" d="m30 77 6 1 1 5 1-3h5l1 6-15 2v-2h-7v-1h8v-2h-2c.506-2.169 1-4 2-6"/><path fill="#133845" d="m7 9 10 1v2h2l1 4h-3v6l-6 1c-1.255-3.766-.37-5.372 1-9l-8 1 2-1c.656-2.527.656-2.527 1-5"/><path fill="#264441" d="M17 101h3l1 10c1.098-1.047 1.098-1.047 2.188-2.625C25 107 25 107 28.188 107.313L31 108v2l2.938.75L37 112l1 4H27v-2h3l-2-2-1-2h-2l-1 3-3 1-2 3-2-6h2v-6h-2z"/><path fill="#D1B5A2" d="m83.688 80.938 2.126.013q2.594.02 5.186.049l1 4-3.375-.187L85 85l-2 3c-2.164.293-2.164.293-4.625.188l-2.477-.083L74 88v-2h-6v-2h5v-2c3.619-1.206 6.925-1.108 10.688-1.062"/><path fill="#C3B3A2" d="M64 100h-2l-1 5c-1.875.625-1.875.625-4 1l-2-2c-2.069-.643-2.069-.643-4-1v2l-1.75-.625c-2.77-.462-3.896.196-6.25 1.625l-3-2v-4l2.438.563L45 101l1-1c2.265-.264 4.538-.461 6.813-.625l3.769-.29c2.814-.07 4.787.027 7.418.915"/><path fill="#D5BBAB" d="M73 37q3.012.43 6 1l-1 4h-2v2h2v2h-2l-1 2-3-2 1 3a659 659 0 0 1-5.875-.875l-3.305-.492C61 47 61 47 59 45c1.811-1.811 4.613-1.382 7.063-1.562l3.347-.254L72 43l-.062-2.437C72 38 72 38 73 37"/><path fill="#415546" d="M0 100c3.793 2.588 4.94 4.47 6 9l-1 2 3-1v2h2l1 4H9v2c-3.375-.687-3.375-.687-7-2-1.996-3.633-2.224-6.719-2.125-10.812l.055-2.958z"/><path fill="#C4B1A2" d="M26 96v2l9 1 1 3h-4q-2.378.22-4.75.5l-2.422.281L23 103l-1-3c-2.33.959-2.33.959-4 4l-1-3-4 4-3-1v-4h3v-2l5.957.195C21.812 97.922 23.116 96 26 96"/><path fill="#91846F" d="m34.188 89.875 3.33-.014 3.15.006 2.821.004c2.316.119 4.293.475 6.511 1.129v2c-2.884 1.442-5.417 1.094-8.625 1.063l-3.602-.028L35 94l-1-3-1.863.254-2.45.308-2.425.317C25 92 25 92 22 91v2L6 92v-1c9.4-.856 18.75-1.109 28.188-1.125"/><path fill="#F1B499" d="m55.938 18.813 2.652-.043C61 19 61 19 64 21c1.655.385 3.322.728 5 1v1h-5v2l-8 1v2h-2v-2h-2l-1-3-2-1v-2c2.464-1.232 4.19-1.167 6.938-1.187"/><path fill="#2B424E" d="m7 19 4 2v2h5l1 2h-3l-.437 1.75L12 33l3 1-2 1c-2.125-.937-2.125-.937-4-2v-2l-6 1v-2h2l-2-4h6z"/><path fill="#595E52" d="M83 88v4q-5.899.037-11.798.055-2.993.012-5.985.033l-3.799.01-3.507.016C55 92 55 92 52 91v2h-2v-2l-4-1q6.718-.507 13.438-1c1.26-.095 2.52-.19 3.818-.29C69.858 88.229 76.38 87.886 83 88"/><path fill="#3F584A" d="M109 110c1.604-.054 3.208-.093 4.813-.125l2.707-.07C119 110 119 110 122 112l1-2v2h3v4l-5 1v-3l-1 2-2.25-.562c-2.7-.43-4.196-.29-6.75.562-2-3-2-3-2-6"/><path fill="#DBBCA8" d="m50 93-1 6q-2.123.294-4.25.563l-2.39.316C39.994 100 38.248 99.696 36 99v-2l-2-1 1-2c4.806-1.55 10.008-1.087 15-1"/><path fill="#2D4A45" d="M23 115c1.097 3.29.8 4.713 0 8h3v2l-7-1v-2h-2l1 6c-5.75-1.875-5.75-1.875-8-3v-3l1.703-.309c2.75-.827 4.688-2.123 7.047-3.754.8-.547 1.598-1.095 2.422-1.66z"/><path fill="#0B2428" d="M128 104v6l-1.672-1.488c-2.792-1.813-4.29-1.83-7.578-1.7l-2.703.083L114 107l-1 2-3-3h2v-3c1.856.03 1.856.03 3.75.063 2.38.012 4.196-.048 6.5-.688 2.445-.524 3.67.362 5.75 1.625"/><path fill="#73726B" d="m11 96 1 3-2 1c-.69 2.35-.69 2.35-1.125 5.063l-.508 2.785L8 110l-3 1-1-8-3-1-1-5 2 1 1-1c2.69.176 5.329.618 8 1z"/><path fill="#19322F" d="m54 103 2 1-1 6h2v-2l2.313.938c1.875.74 3.774 1.424 5.687 2.062v2l4 1c-3.716.2-4.772.152-8-2l1 3h-2v-2l-3.812-.062-2.145-.036c-2.246.015-2.246.015-5.043 1.098l1-6h2z"/><path fill="#3D4E55" d="M19 22c3.806.672 7.352 1.727 11 3v2l6 1-1 3c-4.114.187-6.384-.192-10-2a94 94 0 0 0-4.187-.5L17 28l-1-2h5z"/><path fill="#223843" d="M20 71h2v2h5c.375 2.188.375 2.188 0 5-2.812 2.813-2.812 2.813-6 5h-3v-2h2c-1.25-3.653-1.671-4.78-5-7l1.938-.375L19 73z"/><path fill="#163431" d="M13 114h2v2h3l1-2 1 4a351 351 0 0 1-3.875 2.563l-2.18 1.44L12 123l-2-1-1 2a141 141 0 0 1-5-5v-2c2.169.506 4 1 6 2v-2h2z"/><path fill="#263937" d="m111 103-1 2c-5.039 1.028-9.887 1.09-15 1v-2h-5v-2c7.02-2.34 14.069-.797 21 1"/><path fill="#4C6777" d="m97.625 63.938 2.477.027L102 64v1h-5l3 4c-6.697 1.03-13.231 1.102-20 1l1-3h10v-2c2.405-1.203 3.95-1.1 6.625-1.062"/><path fill="#505D64" d="M72 46c4 0 4 0 6 1l-1 6-15-1-1-3 2.152-.148 2.785-.227c.917-.07 1.834-.14 2.778-.21L71 48z"/><path fill="#B3A19B" d="M17 45v3l3-1a65 65 0 0 1 4.5-.187l2.344-.043C29 47 29 47 32 49c-7.429.143-7.429.143-11-1v3h4v2c-3.353.373-4.604.31-7.312-1.812C16 49 16 49 16 46q-2.594-.04-5.187-.062l-2.918-.036C5.145 45.995 2.675 46.38 0 47v-3c6.096-1.325 10.978-.466 17 1"/><path fill="#26423B" d="m109 113 3 2c2.153-.308 2.153-.308 4-1v2l5-2 1 2h3l-1 3h-8v3l-6-1z"/><path fill="#2A4542" d="m47 103 1 2h3v-2l3 1-2 3h-3l-1 5c-3 1-3 1-5.187.063L41 111v-6l1.875-.437c2.158-.495 2.158-.495 4.125-1.563"/><path fill="#2F2D30" d="M93 82h7l2 6-2.375-.5c-4.565-.63-9.026-.582-13.625-.5l-2 6-2-1c1.875-6.875 1.875-6.875 3-8q3.51.43 7 1z"/><path fill="#D9B9A4" d="M52 91h12v7l-2-4-2 2c-2.625.125-2.625.125-5 0v2l-5-1v-4h2z"/><path fill="#152428" d="m0 91 5 1v2l2-1c2-.04 4-.043 6 0l-2 5c-5.75.125-5.75.125-8-1v2c-2-1-2-1-3-2-.04-2-.043-4 0-6"/><path fill="#21495F" d="M97 69h11c1 4 1 4 0 6h-7v2h-7l2-1 1-3h6v-3h-6z"/><path fill="#1A2C39" d="m72 67 4 1v2l6 3v2c-5.83.212-11.444-.03-17-2l-1-2 7-1z"/><path fill="#CDBBB5" d="m92 26 3 1v1l6 2v2h2l-1 4v-2h-2l-1-2-10 2-1-5-2-1h6z"/><path fill="#E3C1A6" d="M14 93c11.522-.369 11.522-.369 17 2-3.238 2.158-5.208 2.458-9 3l-2.062.625c-2.516.487-4.476-.01-6.938-.625v2l-3-1h2v-3h2z"/><path fill="#4F5C4C" d="M0 88c7.353-.202 13.949-.212 21 2v1l-2.809.148-3.628.227-3.622.21c-.97.138-1.94.274-2.941.415l-1 2H5v-2l-5-1z"/><path fill="#6D737A" d="M109 37h6l1 3h3l1 2h8c-3.035 2.024-4.194 2.321-7.687 2.625l-2.45.227L116 45v-3l-13-1 2-3v2l3-1z"/><path fill="#798189" d="M113 62c0 2 0 2-1.437 4.063-3.55 2.684-7.143 3.181-11.563 2.937l-3-2v-2l3.313-.375c4.921-.834 7.485-2.856 12.687-2.625"/><path fill="#233E4E" d="M107 41h7l3 10h-6l-.875-2.375c-.974-2.722-.974-2.722-3.125-4.625z"/><path fill="#E1A491" d="m64.188 12.875 2.271.027c1.847.024 3.694.06 5.541.098v4q-3.625.08-7.25.125l-2.066.05C58.939 17.213 56.176 17.08 53 15c3.792-2.528 6.809-2.224 11.188-2.125"/><path fill="#183142" d="M107 44c2 1.25 2 1.25 4 3v4h-3v3h2v3l-6 1 2-5-5 1v-3l6-1z"/><path fill="#6F7277" d="m119 75 2 1-1 2c-2.649.594-5.292.742-8 1v2c-9.367.182-18.659-.387-28-1v-1l2.044-.06c3.111-.096 6.22-.206 9.331-.315l3.215-.094c10.854.208 10.854.208 20.41-3.531"/><path fill="#474A53" d="m111 54 3 2h-2l1 4-3.375.813c-3.843.845-3.843.845-5.625 4.187l-7-1-1-4 3.75.125c3.333.012 5.35-.406 8.25-2.125h3z"/><path fill="#505856" d="M47 55v2h-2l-1 3c-6.163 2.602-12.407 2.195-19 2v-1l1.723-.297c4.06-.786 7.447-1.604 10.965-3.828C41.203 54.885 43.04 54.614 47 55"/><path fill="#E3C4B4" d="m126 36 2 6-8 1-1-3h-3l1-3c3.196-1.065 5.657-1.074 9-1"/><path fill="#5D676E" d="m23 41 5 1v3l3.875-.062C35.75 44.875 35.75 44.875 38 46l-1-3h2l1 4c-6.565.784-12.468 1.11-19 0l3-1z"/><path fill="#1F2A2A" d="m33 100 1 2h2v-2h4v7c-2.995.998-4.173 1.007-7.187.563L29 107v-2h3z"/><path fill="#5A5E62" d="M31 73h12v5H31z"/><path fill="#223C39" d="M126.625 107.938 128 110l-2 4v-2l-2.562.125c-3.86-.14-6.775-.953-10.438-2.125l1-3c9.173-1.61 9.173-1.61 12.625.938"/><path fill="#DBBCAD" d="M95 80c5.75-.125 5.75-.125 8 1v3l9 1 1 4-10-1v-3h-2l-1-2h-5z"/><path fill="#565A57" d="m66 77-1 1c2 .043 4 .04 6 0l1-1c2-.04 4-.043 6 0v2l9-1c-3.187 2.125-3.719 2.214-7.312 2.063C73.092 79.916 66.57 80.47 60 81v-4c3-1 3-1 6 0"/><path fill="#3D4D57" d="m37 36 1 3h2l1 4-3 1v2l-10-1 2-4 5-1c1.36-1.968 1.36-1.968 2-4"/><path fill="#4C5561" d="M126 49h2v10c-6.75-.875-6.75-.875-9-2v2h-2l1-4 5 1v-3h2z"/><path fill="#364958" d="M20 34h1v6h7v1h-5l1 5c-2.647 1.46-3.894 2-7 2v-3h-6v-1h9v-6h-2z"/><path fill="#40565F" d="M13 9c1.439.087 2.876.196 4.313.313l2.425.175c2.673.605 3.65 1.317 5.262 3.512v3l2.813-.125C31 16 31 16 34 18v2H24v-2l-2-2h2v-2h-2l-1-2c-1.888-.685-1.888-.685-4.062-1.125l-2.223-.508L13 10z"/><path fill="#1D2D32" d="m107 90 7 4 2-3 6 1-1 3h-5v2h-10z"/><path fill="#626670" d="m114 41 3 1v2l11-1-1 5q-2.156.039-4.312.063l-2.426.035C118 48 118 48 115 47z"/><path fill="#344D4A" d="M17 101h3l1 10a85 85 0 0 0 2.438-2.562C25 107 25 107 27 107v3h-2l-1 3-3 1-2 3-2-6h2v-6h-2z"/><path fill="#13282A" d="M50 85v2h4v2c-7.728.137-15.309-.248-23-1v-1q3.061-.508 6.125-1l3.445-.562c3.191-.408 6.218-.516 9.43-.438"/><path fill="#2B3B3E" d="M45 73h4v4h2v-2h2l2 5c-1 1-1 1-3.562 1.063L49 81v-2l-4-1z"/><path fill="#30373D" d="M20.375 70.313 22 71h-2l-1 3-3 1v3l-9 1 1-4v3h2v-2h2v-3c5.415-3.077 5.415-3.077 8.375-2.687"/><path fill="#2D423E" d="M56 105c5.197-.705 5.197-.705 8 0 2.22 2.404 3.628 5.044 5 8h-4v-2l-1.75-.375c-2.273-.631-4.175-1.514-6.25-2.625v2h-2z"/><path fill="#616169" d="m114 55 3 2v2h2v-2l4 2-6 1-1 3h-10l-1-2 7-1v-4z"/><path fill="#CAAE95" d="m22 91 9 1 1 3c-5.75.125-5.75.125-8-1h-4c-4 0-4 0-6-1v3l-2-1 1-2H8v-1q2.375-.04 4.75-.062l2.672-.036c2.36.09 4.323.429 6.578 1.098z"/><path fill="#505159" d="M2 61h11l1 2-1.937.375L10 64l-1 2c-6.75.125-6.75.125-9-1z"/><path fill="#4A575D" d="M81 30h7l.125 1.875L89 34c2.996 1.305 2.996 1.305 6 2-2.606.93-3.642 1.15-6.25.063L87 35v-2l-5-1v5l-5 1v-2l2-1a78 78 0 0 0 2-5"/><path fill="#2E4742" d="m78.125 107.938 2.758.027L83 108l-1 3h-4l-1 5h-2v-2l-3-1 1-2-2-2c2.525-1.262 4.312-1.099 7.125-1.062"/><path fill="#334448" d="M38 80h5l1 6H31v-2l6-1z"/><path fill="#A9927C" d="M50 91v2c-2.884 1.442-5.417 1.094-8.625 1.063l-3.602-.028L35 94v-3c5.376-.849 9.654-1.002 15 0"/><path fill="#153330" d="m24 114 2 1v3l4-1c-.875 4.75-.875 4.75-2 7l-5-1c-1.255-3.766-.37-5.372 1-9"/><path fill="#3E5250" d="M16 100h1v5h2v6l-3 1-3-3 1-3h-2c1.114-2.228 2.446-4.057 4-6"/><path fill="#B1A7A3" d="M24 28c1.673.65 3.339 1.32 5 2 1.992.376 3.992.72 6 1l-1.5 1.375C31.774 33.876 31.774 33.876 32 36h-3l-1-2c-2.527-.656-2.527-.656-5-1l-1-4z"/><path fill="#25373F" d="M21 33h7l1 3 8-1c-3.527 2.352-6.77 3.586-11 4-2-1.25-2-1.25-3-3v-2z"/><path fill="#676C71" d="M12 23q2.514.428 5 1l-3 1c-.692 1.847-.692 1.847-1 4l-1 4 3 1-2 1c-2.125-.937-2.125-.937-4-2v-2l-3-1v-1l5-1v-4z"/><path fill="#4B5558" d="M56 72v3l3 1-2 3-4-2v-2h-2v2h-2l1-5c3.75-1.125 3.75-1.125 6 0"/><path fill="#1C3735" d="m94 107 3.188.5c3.017.396 5.783.592 8.812.5l1 2h-2v5h-3l-1-5h-8z"/><path fill="#A49C98" d="m101 88 13 2v2l2 1-3 3-5-5-5 2z"/><path fill="#DFC0AD" d="m120 86 8 1v7l-1-2h-2l-1-2c-2.126-.467-2.126-.467-4.562-.625l-2.504-.227L115 89v-1l5-1z"/><path fill="#1C2C30" d="M4 74h3v5l7-1v2c-2.405 1.203-3.95 1.1-6.625 1.063l-2.477-.028L3 81c-.043-2-.04-4 0-6z"/><path fill="#383C3D" d="m58 46 3 2-1 3-5-2-1 2v-2h-2v3h-4v2l-2-1c3.55-4.653 5.847-7.615 12-7"/><path fill="#1C3936" d="m25 110 5 2v2h-3v2h4l-1 2h-4l-2-3-4 2c.313-1.937.313-1.937 1-4l3-1z"/><path fill="#C8AEA1" d="M117 80v2h-3l-1 2h-10v-3c4.672-1.206 9.215-1.094 14-1"/><path fill="#CFB7AC" d="m39 30 4 1 1 4-2.437.375L39 36l-1 2-1-2c-2.017-1.134-2.017-1.134-4-2 3-2 3-2 6-2z"/><path fill="#193D3C" d="M99 124v2h3v2H89v-3c3.38-1.04 6.478-1.08 10-1"/><path fill="#334F4A" d="M41.203 120.668c2.283.018 4.524.118 6.797.332v2c-3.972 3.13-7.042 3.292-12 3 1.138-3.036 1.836-4.825 5.203-5.332"/><path fill="#51606A" d="m121 75 7 1v4c-4.516.077-8.59.102-13-1v-1h5z"/><path fill="#233748" d="M79 71h8v3l2 2c-3.27 1.031-5.86.964-9.25.563l-2.703-.31L75 76v-1h7z"/><path fill="#01101A" d="M26 67h28l-1 2c-2.5.688-2.5.688-5 1l-1-1a226 226 0 0 0-8.062-.562l-2.3-.131Q33.82 68.148 31 68l-1 3v-3z"/><path fill="#DBBCA7" d="M13 61c1.96.06 3.918.149 5.875.25l3.305.14C25 62 25 62 26.383 64.048L27 66a316 316 0 0 1-5.312-.312l-2.989-.176C15.752 64.953 14.78 64.362 13 62z"/><path fill="#213D3A" d="M20 100h2l1 2 3 2-1 4h-2l-1 4-2-1z"/><path fill="#BFAE9E" d="M62.375 99.313 64 100h-2l-1 5-4 1-3-4c5.415-3.077 5.415-3.077 8.375-2.687"/><path fill="#17282F" d="M48 52h4l1 4h-4l-.625 1.938C47 60 47 60 43.875 60.75L41 61a91 91 0 0 1 4-4h2l-1-3h2z"/><path fill="#DFBFAF" d="M50 42h2v6h-2l-1 2-6-3c3.625-3 3.625-3 7-3z"/><path fill="#203748" d="m84.625 48.938 2.477.027L89 49v3c-7.429 2.429-7.429 2.429-11 1v-3c2.405-1.203 3.95-1.1 6.625-1.062"/><path fill="#D3B1A5" d="M81 18h2c1.284 2.569 1.33 4.766 1.563 7.625l.253 3.04L85 31h-4l-2 3v-6h3z"/><path fill="#0A2A2A" d="M72 121h3v2h3v2l-6 1v2h-3c1.875-5.875 1.875-5.875 3-7"/><path fill="#635C5F" d="M16 65c2.383.023 2.383.023 5.125.375l2.758.336L26 66c-3.303 3.915-3.303 3.915-6.562 4.313C17 70 17 70 14 69c0-2 0-2 2-4"/><path fill="#3F444C" d="m10 62 2 1c.625 3.063.625 3.063 1 6l-5 1v-2H4v-2h5z"/><path fill="#636D77" d="M125 60h3v10h-4l-1-6 3-1z"/><path fill="#0C1D24" d="M25 62h18c-4.043 2.022-6.321 2.36-10.75 2.625l-3.547.227L26 65z"/><path fill="#314551" d="M3 37c3.436 1.527 6.12 3.6 9 6-4.053.982-7.839 1.082-12 1v-2h5v-3H3z"/><path fill="#9A8C82" d="m74 79 21 1v2l-3 1-1-1a63 63 0 0 0-4.254-.098l-2.588.01-2.72.025-2.733.014Q75.353 81.97 72 82l2-1z"/><path fill="#3E4850" d="m70 74 1.875.438C76.225 75.22 80.6 75.598 85 76v2l-7 1v-2l-2.875.063C72 77 72 77 70 76z"/><path fill="#6C6C70" d="M32 69h12v3H32z"/><path fill="#0A2B36" d="m18 18 4 1v2l3.375.375C29 22 29 22 31 24l-7 1v-2l-6-1z"/><path fill="#1B3A37" d="m109 113 2 1v2h4v6l-5-1z"/><path fill="#28423D" d="m4 112 6 1 1 3H9v2l-7-2v-2h2z"/><path fill="#132023" d="m9 100 1 4h2v2h2l1 3H7z"/><path fill="#2C454A" d="M11 86h10v2l3 1c-4.845 1.514-8.26.366-13-1z"/><path fill="#273B48" d="m77 67 1 4h-6l4-1v-2c-3.879-.452-3.879-.452-5.625 1.5L69 71h-2v-4c3.694-1.231 6.206-.644 10 0"/><path fill="#626C7A" d="M119 47h9v2h-2l-1 4-5-1z"/><path fill="#616C75" d="M72 46c4 0 4 0 6 1l-1 6-6-2z"/><path fill="#CBB1A5" d="M40 46c2.262.46 2.262.46 4.688 1.375l2.449.898L49 49v2h-2l-1 4-4-1h3l1-4-9-2z"/><path fill="#132F3E" d="m2 34 5 2-1 3-3-2v2h2v3H0v-4h2z"/><path fill="#0A2E3D" d="m12 14-1 5 2 1-9-1c1-3 1-3 2.875-4.187C9 14 9 14 12 14"/><path fill="#5D645A" d="m47 103 1 2h3v-2l3 1c-2 3-2 3-4.383 3.512l-2.742.175-2.758.2L42 108l-1-3 1.875-.437c2.158-.495 2.158-.495 4.125-1.563"/><path fill="#AB9883" d="M52 91h12v7h-1l-1-5-2.062.5c-3.354.57-6.542.567-9.938.5l2-1z"/><path fill="#24393D" d="M2 76h1v5h6v2l-9 1c-.125-2.875-.125-2.875 0-6z"/><path fill="#6D757E" d="M93 64h9v1h-5l3 4h-8z"/><path fill="#1C3547" d="m17 37 3 1v6h-9c3-3 3-3 6-5z"/><path fill="#0B2F3B" d="m0 19 3 1v2l5 1 1 3c-3.75 1.125-3.75 1.125-6 0v-3l-3-1z"/><path fill="#394143" d="m92 83 1 2 3 1-10 1-2 6-2-1c1.875-6.875 1.875-6.875 3-8q3.51.43 7 1z"/><path fill="#234256" d="m84 41 1 3 2 .5 2 .5 1 3c-1.977.73-3.98 1.394-6 2l-2-1 2-3c.167-2.625.167-2.625 0-5"/><path fill="#092A2A" d="M83 121h4v4h2v3h-3v-2h-4z"/><path fill="#A29592" d="m115 38 1 2h3l1 2h8c-3.035 2.024-4.194 2.321-7.687 2.625l-2.45.227L116 45v-3l-2-2z"/><path fill="#244441" d="M80 113c4.75.75 4.75.75 7 3h-2l-2 5h-3v-2h2l1-4-4 1z"/><path fill="#1A201E" d="M7 93h6l-2 5H5v-2h2z"/><path fill="#445D6B" d="M118 76c-3.04 1.721-5.594 2.394-9.062 2.75l-2.598.297C104 79 104 79 101 77c5.666-1.225 11.237-1.092 17-1"/><path fill="#17282F" d="m25 67 3 1c.688 2.063.688 2.063 1 4l-7 1c.375-2.437.375-2.437 1-5z"/><path fill="#4C5E6D" d="M120 61c2 3 2 3 2 7-2.709 1.354-5.01 1.065-8 1v-2l5-1-1-4z"/><path fill="#938B8A" d="M73 37q3.012.43 6 1l-1 4h-2l-1 2-2-1c-.687-2.5-.687-2.5-1-5z"/><path fill="#153243" d="m97 36 3 1c1.188 3.063 1.188 3.063 2 6l-6-1-1-4h2z"/><path fill="#395863" d="M7 9h5c-1.875 4.875-1.875 4.875-3 6-1.666.04-3.334.043-5 0l2-1c.656-2.527.656-2.527 1-5"/><path fill="#E4C7B3" d="m14 93 3 1-1 2 6 2c-3.325 1.108-5.622.845-9 0v2l-3-1h2v-3h2z"/><path fill="#606F62" d="M74 88h9v4l-9-2z"/><path fill="#6A6E72" d="m28 26 8 2-1 3c-2.875.125-2.875.125-6 0l-2-2z"/><path fill="#6D746A" d="M8 100c1.6 4.002.293 7.046-1 11H5l-1-8 3-1z"/><path fill="#71747D" d="m119 79 9 1v4h-4l-1-2h-4z"/><path fill="#284542" d="M111.25 108.875 113 110h-4l1 6-2 1v-5h-2l1 3h-2v-5c3.446-2.215 3.446-2.215 6.25-1.125"/><path fill="#0A1F1E" d="M89 105q2.188.212 4.375.438l2.46.246C98 106 98 106 100 107l-1 2-5-2-1 2-4-1z"/><path fill="#08191D" d="m33 100 4 5c-3.228 2.152-4.284 2.2-8 2v-2h3z"/><path fill="#B4A59E" d="m17 100-4 5-3-1v-4c3.01-.934 3.867-1.044 7 0"/><path fill="#4A544F" d="m66 77-1 1 4 2-9 1v-4c3-1 3-1 6 0"/><path fill="#3C434F" d="m128 43-1 5-5-1v-3c3-1 3-1 6-1"/><path fill="#1B3C4A" d="M15 16h2v6l-6 1-1-3 1.938-.875c2.214-.953 2.214-.953 3.062-3.125"/><path fill="#1B3030" d="M111 100h1c.043 2 .04 4 0 6l-1 1 2 2-4-1v-2h-5c2.62-1.746 4.038-2.387 7-3l-2-1z"/><path fill="#DCC1AD" d="M62 92h1v5c-2.709 1.354-5.01 1.065-8 1v-2c3-2 3-2 7-2z"/><path fill="#2A3940" d="M45 69h8v3c-3.053.981-4.947.981-8 0z"/><path fill="#152A35" d="M29 64c2.48.145 2.48.145 5.188.813l2.73.644L39 66v1H26z"/><path fill="#435C6E" d="m116 47 4 2v3h3v2h-5z"/><path fill="#1E2D2F" d="m70 101 5 2v4h-5z"/><path fill="#3B4E49" d="m83 101 5 1-1 4-5-1z"/><path fill="#182D2F" d="M97 100c-3 2-3 2-7 2v2h5l-1 2-6-2c2.265-5.016 3.724-5.25 9-4"/><path fill="#D9C0B0" d="M87.625 80.875 91 81l1 4-10-2c2-2 2-2 5.625-2.125"/><path fill="#33586A" d="M128 71v3c-3.375.125-3.375.125-7 0l-2-2c2.957-1.478 5.742-1.06 9-1"/><path fill="#31404A" d="M53 68c3.688.498 5.605 1.1 8 4h-8z"/><path fill="#616368" d="m81 30 4 2h-3v5l-5 1v-2l2-1a78 78 0 0 0 2-5"/><path fill="#D3BEB2" d="M12 29c2.938.813 2.938.813 6 2l1 3c-3 1-3 1-5.187.063L12 33z"/><path fill="#1B3936" d="m63 115 3 1-1 5h-8l1.938-.937C61.93 118.52 61.873 118.38 63 115"/><path fill="#404745" d="m116 91 6 1-1 3-7 1z"/><path fill="#5A6874" d="m119 64 1 3h-6l-1 2-2-4c2.763-.597 5.16-1 8-1"/><path fill="#354E5D" d="M76 60c2.12 3.534 2.532 6.944 3 11l-2-3-3-1v-3h2z"/><path fill="#726B68" d="M4 61h9l1 2c-2.982.773-5.976 1.412-9 2z"/><path fill="#374E5C" d="m103 36 .313 1.938L104 40l3 1v3l-5-1c-.043-2-.04-4 0-6z"/><path fill="#1A3531" d="m47 114 2 2h-3c1.255 2.51 2.5 2.871 5 4h-5v2h-2c.256-2.343.593-4.678 1-7z"/><path fill="#1E3E3A" d="M98 112c1.208 3.623.543 4.641-1 8l-4-2v-4h2v2h2z"/><path fill="#233D3A" d="m64 107 5 5-4 1v-2h-3z"/><path fill="#152421" d="M16 100h1v5h2v5h-2c-1.837-3.782-2.158-5.946-1-10"/><path fill="#3D504A" d="M90 102h10l-1 3-9-1z"/><path fill="#274557" d="M82 70h10l-3 1v4l-4-2 1-1z"/><path fill="#39474F" d="m28 34 1 2 8-1c-3.687 2.458-6.697 3.012-11 4z"/><path fill="#1E3C3B" d="M70 115h3v2h2v3l-4 1v-3l-2-1z"/><path fill="#344034" d="M0 100c2 1.313 2 1.313 4 3v3H2v2H0z"/><path fill="#918C89" d="M39 73h4v5h-4z"/><path fill="#A2999B" d="M107 62h6v2c-2.647 1.46-3.894 2-7 2z"/><path fill="#4F535E" d="m88 60 1 2c1.895.465 1.895.465 4.063.625L97 63c-2.332 1.206-4.496 2.165-7 3l-1-3-2-1z"/><path fill="#2F4651" d="M64 53c2.02.602 4.021 1.273 6 2l1 2-5 1v-2h-2z"/><path fill="#304652" d="M93 32a91 91 0 0 1 4 4v2h-5l1-2-2-1v-2z"/><path fill="#B6ABAA" d="M94 29h6l1 3h2l-1 4v-2h-2a102 102 0 0 1-3-3z"/><path fill="#374F5A" d="M3 26h5c0 3 0 3-2 6H3v-2h2z"/><path fill="#3F4F4A" d="m111 103-1 2h-8v-2c3.325-1.108 5.622-.845 9 0"/><path fill="#4D515B" d="M11 44h10l-1 4h-3v-3h-6z"/><path fill="#B5AFAC" d="m88 30 9 1c-2.923 1.461-4.925 2.341-8 3z"/><path fill="#173330" d="M39 125h7l-1 3h-6z"/><path fill="#284642" d="m30 118 2 1-2 8h-2c-.201-3.625.142-5.865 2-9"/><path fill="#0C2B28" d="M9 119h6l-2 4-4-1z"/><path fill="#233F3C" d="m43 114 3 1-2 6h-2l-2-4 3-1z"/><path fill="#333D38" d="M20 100h2l1 2 3 2c-1 1-1 1-3.562 1.063L20 105z"/><path fill="#958F86" d="M54 102h8l-2 4c-1.875-.312-1.875-.312-4-1z"/><path fill="#BDB1A5" d="M4 99h5l-2 6-1-2H4z"/><path fill="#24303A" d="M20 71h2l1 3h-2l-1 3-5-2 1.938-.875c2.214-.953 2.214-.953 3.062-3.125"/><path fill="#676F77" d="M108 51h6l1 2-1 2-6-2z"/><path fill="#122938" d="M21 34h2l.375 1.938L24 38l2 1-5 1z"/><path fill="#28443F" d="M33 124c2.169.506 4 1 6 2v2h-5z"/><path fill="#0D222D" d="M74 91h7l-4 1 1 3h-4z"/><path fill="#13252C" d="M49 79v6l-1-2h-4l1-3c3-1 3-1 4-1"/><path fill="#152226" d="M4 74h3v6l-3-1z"/><path fill="#5A6977" d="m79 39 2 3-1 3-4-1v-2h2z"/><path fill="#2A3D4B" d="M82 33h2l-1 8-4-2v-2h3z"/><path fill="#515657" d="m34 20 1 3h3v6c-3.938-3.323-3.938-3.323-4.25-6.75z"/></svg>